<?xml version="1.0" standalone="no"?><!DOCTYPE svg PUBLIC "-//W3C//DTD SVG 1.1//EN" "http://www.w3.org/Graphics/SVG/1.1/DTD/svg11.dtd"><svg class="icon" width="200px" height="200.00px" viewBox="0 0 1024 1024" version="1.1" xmlns="http://www.w3.org/2000/svg"><path fill="#333333" d="M886.383616 548.54144c-13.976576-26.21952-46.308352-35.903488-72.192-21.808128l-177.024 96.66048c4.148224 14.139392 3.69152 29.76768-2.348032 44.435456-10.160128 24.612864-33.888256 40.480768-60.491776 40.480768-8.820736 0-17.28-1.824768-25.07264-5.056512l-87.191552-36.839424L462.063616 653.44512l91.748352 38.756352c6.683648 2.803712 14.019584 4.171776 20.89984 4.171776 20.799488 0 40.840192-12.464128 49.37216-33.099776 0.600064-1.580032 1.099776-3.187712 1.603584-4.767744 0.167936-0.600064 0.264192-1.176576 0.432128-1.775616 0.239616-0.932864 0.503808-1.916928 0.69632-2.948096 0.167936-0.740352 0.311296-1.508352 0.431104-2.299904 0.120832-0.744448 0.264192-1.508352 0.336896-2.300928 0.095232-0.887808 0.239616-1.819648 0.283648-2.659328 0.023552-0.503808 0.023552-0.935936 0.096256-1.416192 1.103872-22.047744-11.047936-43.35616-32.3328-52.343808l-245.183488-102.244352-109.028352 22.144 0 206.119936 72.332288 0 276.079616 52.204544L864.835584 621.13792C890.69568 607.069184 900.355072 574.713856 886.383616 548.54144L886.383616 548.54144 886.383616 548.54144zM886.383616 548.54144M212.299776 716.985344c0 13.179904-10.78784 23.968768-23.968768 23.968768l-23.967744 0c-13.184 0-23.967744-10.788864-23.967744-23.968768L140.39552 477.309952c0-13.179904 10.783744-23.968768 23.967744-23.968768l23.967744 0c13.180928 0 23.968768 10.788864 23.968768 23.968768L212.299776 716.985344 212.299776 716.985344zM212.299776 716.985344M726.279168 236.653568l-75.27936 128.82432 53.376 0 0 38.755328L638.464 404.233216l0 29.408256 65.911808 0 0 39.140352L638.464 472.781824l0 53.735424-59.536384 0 0-53.735424-68.163584 0 0-39.140352 68.163584 0 0-29.408256-68.163584 0 0-38.755328 54.863872 0-73.224192-128.82432 63.660032 0c28.831744 59.656192 47.04768 98.983936 54.667264 117.967872l1.32096 0c1.007616-2.732032 2.179072-6.183936 3.547136-10.307584 2.2528-6.611968 11.240448-26.100736 26.963968-58.432512l23.416832-49.251328 60.299264 0L726.279168 236.653568zM726.279168 236.653568" /></svg>