<?xml version="1.0" standalone="no"?><!DOCTYPE svg PUBLIC "-//W3C//DTD SVG 1.1//EN" "http://www.w3.org/Graphics/SVG/1.1/DTD/svg11.dtd"><svg class="icon" width="200px" height="200.00px" viewBox="0 0 1024 1024" version="1.1" xmlns="http://www.w3.org/2000/svg"><path fill="#333333" d="M273.749333 625.186133c-5.461333 20.0704 4.5056 20.8896 4.5056 20.8896s24.576 0 40.96 0.955734c15.428267 1.774933 12.6976-8.192 12.6976-8.192s1.774933-24.576 2.730667-34.542934 2.730667-126.5664 0.955733-155.648c0-26.350933-13.653333-172.032-13.653333-172.032l5.461333-2.730666s38.229333-23.620267 61.8496-39.185067c23.620267-15.428267 27.306667-5.461333 27.306667-5.461333s0.955733 128.341333 0 159.3344 0 359.492267 0 418.747733c0 21.845333-11.8784 18.158933-11.8784 18.158933h-84.650667c-18.158933 0-13.653333-9.147733-13.653333-9.147733l7.236267-21.845333s8.192-49.152 13.653333-84.650667c0-36.864-30.037333-24.576-83.285333-25.941333s-51.882667 0-55.978667-10.922667c20.48-109.226667 5.870933-337.237333 5.870933-337.237333s39.594667-19.114667 57.7536-30.446934c18.0224-11.195733 19.114667 0 19.114667 0l5.051733 71.406934c0.273067 0-0.136533 216.6784-2.048 248.490666z m274.0224-403.182933h-18.158933s-6.417067 0-7.7824 10.922667-2.321067 31.812267-6.826667 41.915733c-4.5056 9.966933-23.620267 59.118933-23.620266 59.118933l-18.158934 28.2624s-9.966933 6.417067 13.653334 25.531734 38.229333 30.037333 38.229333 30.037333 14.609067 16.384 22.801067-4.5056c16.384-25.531733 27.306667-49.152 27.306666-49.152s0-9.147733 18.158934-9.147733 116.462933-0.955733 116.462933-0.955734 15.428267 9.147733 12.6976 22.801067-19.114667 69.2224-32.768 95.573333-48.196267 89.156267-52.8384 91.067734c-13.653333-16.384-91.067733-103.765333-91.067733-103.765334s-0.955733-12.6976-17.339734 1.774934c-16.384 14.609067-29.0816 23.620267-29.0816 23.620266s-9.966933 2.730667-1.774933 19.114667c11.8784 19.114667 60.074667 88.337067 60.074667 88.337067l22.801066 32.768s4.5056 7.236267-7.236266 16.384c-11.8784 11.8784-58.299733 55.569067-87.381334 67.310933-27.306667 14.609067-37.2736 10.922667-32.768 28.2624 8.192 20.8896 35.498667 79.189333 35.498667 79.189333s1.774933 15.428267 19.114667 5.461334c19.114667-13.653333 96.529067-71.953067 111.0016-91.067734l23.620266-25.531733s57.344 58.299733 70.0416 69.2224c14.609067 12.6976 57.344 46.421333 57.344 46.421333s11.8784 10.922667 19.114667-7.236266c9.966933-24.576 35.498667-80.964267 35.498667-80.964267s13.653333-10.922667-5.461334-20.8896c-19.114667-9.147733-47.377067-23.620267-70.0416-42.734933-22.801067-19.114667-50.107733-42.734933-50.107733-42.734934s23.620267-39.185067 39.185067-78.2336c15.428267-39.185067 47.377067-148.411733 45.4656-166.570666l1.774933-16.384s8.192-11.8784 21.845333-9.966934c13.653333 1.774933 21.981867 0 21.981867 0v-20.8896s5.3248-9.966933-32.904533-11.8784c-38.229333 0.955733-194.833067 0.955733-194.833067 0.955734s-5.461333-4.5056-2.730667-14.609067c2.730667-9.966933 12.6976-41.915733 12.6976-69.2224s0.955733-17.339733 0.955734-17.339733h-64.443734v-0.273067z" /></svg>