<?xml version="1.0" standalone="no"?><!DOCTYPE svg PUBLIC "-//W3C//DTD SVG 1.1//EN" "http://www.w3.org/Graphics/SVG/1.1/DTD/svg11.dtd"><svg class="icon" width="200px" height="200.00px" viewBox="0 0 1024 1024" version="1.1" xmlns="http://www.w3.org/2000/svg"><path fill="#888888" d="M750.626133 68.266667H273.373867C235.485867 68.266667 204.8 98.884267 204.8 136.738133v716.3904C204.8 890.9824 235.451733 921.6 273.373867 921.6h477.252266c37.888 0 68.573867-30.6176 68.573867-68.471467V136.738133C819.2 98.884267 788.445867 68.266667 750.626133 68.266667zM273.066667 136.533333h477.866666v477.866667H273.066667V136.533333z m477.866666 716.8H273.066667v-170.666666h477.866666v170.666666z m-207.36-102.4h-63.146666C460.117333 750.933333 443.733333 766.190933 443.733333 785.066667c0 18.875733 16.384 34.133333 36.693334 34.133333h63.146666C563.882667 819.2 580.266667 803.9424 580.266667 785.066667c0-18.875733-16.384-34.133333-36.693334-34.133334z" /></svg>