<?xml version="1.0" standalone="no"?><!DOCTYPE svg PUBLIC "-//W3C//DTD SVG 1.1//EN" "http://www.w3.org/Graphics/SVG/1.1/DTD/svg11.dtd"><svg class="icon" width="200px" height="200.00px" viewBox="0 0 1024 1024" version="1.1" xmlns="http://www.w3.org/2000/svg"><path fill="#333333" d="M363.52 848.384H277.504c-29.696 0-66.048-27.648-66.048-50.176V221.184c0-25.6 20.48-45.568 47.104-45.568h438.784c10.24 0 28.16 0 28.16 45.568v434.688c0 15.872 13.312 28.672 29.184 28.672s29.184-12.8 29.184-28.672V221.184c0-65.024-32.256-102.912-86.528-102.912H258.56c-58.88 0-103.936 45.056-103.936 102.912v576.512c0 59.904 66.56 107.52 122.88 107.52H363.52c15.872 0 28.672-12.8 28.672-28.672s-12.8-28.16-28.672-28.16z"  /><path fill="#333333" d="M344.064 294.4c-7.68 7.68-7.68 19.456 0 27.136L430.08 407.552H358.4c-10.752 0-18.944 8.192-18.944 18.944S348.16 445.44 358.912 445.44h95.232v56.832H358.912c-10.752 0-18.944 8.192-18.944 18.944s8.704 18.944 18.944 18.944h95.232v57.856c0 10.752 8.192 18.944 18.944 18.944s18.944-8.704 18.944-18.944v-57.856h96.256c10.752 0 18.944-8.192 18.944-18.944s-8.704-18.944-18.944-18.944H491.52V445.44h96.256c10.752 0 18.944-8.192 18.944-18.944s-8.704-18.944-18.944-18.944h-71.68l86.528-86.528c7.68-7.68 7.68-19.456 0-27.136s-19.456-7.68-27.136 0l-102.4 102.4-102.4-102.4c-7.168-7.168-19.456-7.168-26.624 0.512z m107.52 501.248c-15.872 0-28.672 12.288-28.672 28.16s12.8 28.16 28.672 28.16H783.36l-48.128 48.128c-11.264 11.264-11.264 29.184 0 40.448 5.632 5.632 12.8 8.192 19.968 8.192s14.848-2.56 19.968-8.192l93.696-93.696c7.68-5.12 12.8-13.824 12.8-23.552 0-10.24-5.632-19.456-13.824-24.576l-93.184-92.16c-11.264-11.264-29.184-11.264-40.448 0s-11.264 29.184 0 40.448l48.64 48.64H451.584z"  /></svg>