<?xml version="1.0" standalone="no"?><!DOCTYPE svg PUBLIC "-//W3C//DTD SVG 1.1//EN" "http://www.w3.org/Graphics/SVG/1.1/DTD/svg11.dtd"><svg class="icon" width="200px" height="169.26px" viewBox="0 0 1210 1024" version="1.1" xmlns="http://www.w3.org/2000/svg"><path fill="#888888" d="M593.49090869 698.21818174L62.57272695 427.23636347 584.9 120.90909131l540.16363653 306-531.57272784 271.30909043zM163.45454521 424.29090869L593.49090869 643.72727305l429.21818262-219.10909131-437.31818262-247.66363653-421.85454521 247.33636348z"  /><path fill="#888888" d="M589.72727305 952.18181826c-7.85454521 0-15.95454521-0.32727305-23.89090957-0.98181826-63.65454521-4.90909131-127.39090869-29.94545479-184.41818174-72.57272695a379.22727305 379.22727305 0 0 1-67.90909043-64.22727305l-5.1545461-6.54545479V537.77272695h48.6v252.9c8.50909131 9.73636348 27.57272695 29.78181826 54.9 50.1545461 50.15454521 37.14545479 103.33636347 58.00909131 158.23636348 62.18181826 88.60909131 6.54545479 179.01818174-31.74545479 268.52727305-113.97272783v-251.18181827h48.6V809.81818174l-7.60909043 7.28181826c-94.90909131 89.59090869-192.27272695 135-289.8 135zM165.90909131 458.73636347h48.51818174V845H165.90909131V458.81818174z"  /></svg>