<?xml version="1.0" standalone="no"?><!DOCTYPE svg PUBLIC "-//W3C//DTD SVG 1.1//EN"
        "http://www.w3.org/Graphics/SVG/1.1/DTD/svg11.dtd">
<svg class="icon" width="200px" height="200.00px" viewBox="0 0 1024 1024" version="1.1"
     xmlns="http://www.w3.org/2000/svg">
    <path fill="#888888"
          d="M362.457 287.365c13.34 0 22.232-8.895 22.232-22.235V87.26c0-13.34-8.892-22.237-22.232-22.237-13.341 0-22.232 8.896-22.232 22.237V265.13c0 13.34 8.89 22.235 22.232 22.235z m-88.935 0c13.341 0 22.233-8.895 22.233-22.235V87.26c0-13.34-8.892-22.237-22.233-22.237-13.34 0-22.236 8.896-22.236 22.237V265.13c0 13.34 8.896 22.235 22.236 22.235z m177.87-222.34c-13.34 0-22.234 8.895-22.234 22.236v317.94c0 11.12-4.448 22.237-13.34 31.129l-40.02 40.022-13.341 15.563v373.527c0 24.46-20.01 44.47-44.469 44.47-24.456 0-44.466-20.01-44.466-44.47V491.914l-13.34-13.339-40.021-40.021c-8.895-8.894-13.34-20.01-13.34-31.125V87.261c0-13.34-8.896-22.237-22.236-22.237s-22.233 8.896-22.233 22.237v317.94c0 24.46 8.892 46.692 26.68 62.259l40.02 42.244v355.738c0 48.92 40.022 88.942 88.936 88.942 48.916 0 88.937-40.022 88.937-88.942V509.703l40.021-40.021c17.785-17.789 26.68-40.022 26.68-62.253V87.261c0.001-13.34-8.895-22.237-22.234-22.237z m355.745 0c-122.294 0-222.346 100.052-222.346 222.34v355.74l88.944 88.934v133.402c0 48.921 40.022 88.943 88.932 88.943s88.931-40.022 88.931-88.943V109.493c0-24.458-20.01-44.469-44.46-44.469z m0 800.416c0 24.46-20.01 44.47-44.47 44.47-24.461 0-44.471-20.01-44.471-44.47V714.257l-13.341-13.339-75.59-75.602v-337.95c0-97.83 80.04-177.873 177.872-177.873v755.948z"/>
</svg>