<?xml version="1.0" standalone="no"?><!DOCTYPE svg PUBLIC "-//W3C//DTD SVG 1.1//EN" "http://www.w3.org/Graphics/SVG/1.1/DTD/svg11.dtd"><svg class="icon" width="200px" height="200.00px" viewBox="0 0 1024 1024" version="1.1" xmlns="http://www.w3.org/2000/svg"><path fill="#888888" d="M833.4336 666.8288 586.1376 360.2432c0.3072-4.7104 0.7168-9.3184 0.7168-14.0288 0-110.6944-90.0096-200.704-200.8064-200.704C275.3536 145.408 185.344 235.4176 185.344 346.112c0 110.6944 90.0096 200.8064 200.8064 200.8064 4.7104 0 9.4208-0.4096 14.0288-0.7168l306.5856 247.296c4.096 3.2768 9.1136 4.9152 14.0288 4.9152 5.7344 0 11.4688-2.1504 15.7696-6.5536l17.5104-17.5104c0 6.7584-0.8192 13.824-3.3792 20.8896-5.7344 15.5648-19.2512 27.9552-40.2432 36.6592-24.6784 10.3424-63.0784-7.5776-107.52-28.4672-81.8176-38.4-193.9456-90.9312-313.856 3.072-9.728 7.5776-11.3664 21.7088-3.7888 31.3344 7.5776 9.728 21.6064 11.3664 31.3344 3.7888 98.304-77.1072 188.1088-34.9184 267.3664 2.2528 38.8096 18.2272 76.0832 35.6352 110.3872 35.6352 11.4688 0 22.6304-1.9456 33.4848-6.4512 32.768-13.824 54.5792-34.816 64.8192-62.464 10.6496-28.8768 5.4272-57.5488 0-74.8544l39.3216-39.3216C839.9872 688.5376 840.6016 675.6352 833.4336 666.8288L833.4336 666.8288zM229.9904 346.112c0-86.016 70.0416-156.0576 156.0576-156.0576 86.016 0 156.0576 70.0416 156.0576 156.0576 0 86.016-70.0416 156.0576-156.0576 156.0576C300.032 502.272 229.9904 432.2304 229.9904 346.112L229.9904 346.112zM719.1552 746.1888 456.192 534.016c54.272-20.3776 97.3824-63.488 117.76-117.76l212.0704 262.8608-31.6416 31.6416c-2.8672 1.8432-5.2224 4.1984-6.9632 6.9632L719.1552 746.1888 719.1552 746.1888zM584.6016 515.7888c-8.704-8.704-22.8352-8.704-31.6416 0-8.704 8.704-8.704 22.8352 0 31.6416l48.4352 48.4352c4.4032 4.3008 10.0352 6.5536 15.7696 6.5536 5.7344 0 11.4688-2.1504 15.7696-6.5536 8.704-8.704 8.704-22.8352 0-31.6416L584.6016 515.7888 584.6016 515.7888zM584.6016 515.7888" /></svg>