<?xml version="1.0" standalone="no"?><!DOCTYPE svg PUBLIC "-//W3C//DTD SVG 1.1//EN" "http://www.w3.org/Graphics/SVG/1.1/DTD/svg11.dtd"><svg class="icon" width="200px" height="200.00px" viewBox="0 0 1024 1024" version="1.1" xmlns="http://www.w3.org/2000/svg"><path fill="#888888" d="M931.648646 905.708404h-25.172779V595.141801c0-16.986509-8.493255-39.498751-28.24263-47.992006L624.151894 380.763865v-267.179374l-0.306985-7.5723c-11.972419-37.04287-39.294094-40.419706-70.299591-34.689317L155.38563 189.819127c-22.61457 8.493255-39.498751 31.107825-39.498751 56.48526v659.506345h-23.126211c-16.986509 0-28.24263 14.121315-28.242631 28.242631 0 16.986509 11.256121 28.24263 28.242631 28.24263h60.066753c5.935045 1.841911 778.923554 0 778.923553 0 16.986509 0 28.24263-11.256121 28.24263-28.24263-0.102328-16.986509-11.358449-28.344959-28.344958-28.344959z m-81.658039-313.431798v313.431798H624.151894V445.435395l225.838713 146.841211zM172.269811 246.304387l395.294494-118.598581V905.810732H172.269811V246.304387z"  /><path fill="#888888" d="M285.240332 397.44339h169.455781c16.986509 0 28.24263-11.256121 28.24263-28.242631s-11.256121-28.24263-28.24263-28.24263H285.240332c-16.986509 0-28.24263 11.256121-28.24263 28.24263 0 16.884181 11.358449 28.24263 28.24263 28.242631zM454.696113 510.41391H285.240332c-16.986509 0-28.24263 11.256121-28.24263 28.24263s11.256121 28.24263 28.24263 28.242631h169.455781c16.986509 0 28.24263-11.256121 28.24263-28.242631s-11.358449-28.24263-28.24263-28.24263zM454.696113 679.767363H285.240332c-16.986509 0-28.24263 11.256121-28.24263 28.24263s11.256121 28.24263 28.24263 28.24263h169.455781c16.986509 0 28.24263-11.256121 28.24263-28.24263 0-16.884181-11.358449-28.24263-28.24263-28.24263zM708.879784 736.252623h56.48526c16.986509 0 28.24263-11.256121 28.242631-28.24263s-11.256121-28.24263-28.242631-28.24263h-56.48526c-16.986509 0-28.24263 11.256121-28.24263 28.24263s11.256121 28.24263 28.24263 28.24263z"  /></svg>