<?xml version="1.0" standalone="no"?><!DOCTYPE svg PUBLIC "-//W3C//DTD SVG 1.1//EN" "http://www.w3.org/Graphics/SVG/1.1/DTD/svg11.dtd"><svg class="icon" width="200px" height="200.00px" viewBox="0 0 1024 1024" version="1.1" xmlns="http://www.w3.org/2000/svg"><path fill="#333333" d="M653.018 972.306h-586.01c-7.479 0-13.541-4.369-13.541-9.745v-25.999c0-5.389 6.063-9.755 13.541-9.755h553.829l32.18 45.498z"  /><path fill="#333333" d="M197.547 883.373c0 5.839-6.795 10.575-15.169 10.575h-113.734c-8.395 0-15.174-4.736-15.174-10.575v-183.173c0-5.839 6.782-10.575 15.174-10.575h113.735c8.374 0 15.169 4.736 15.169 10.575v183.173z"  /><path fill="#333333" d="M381.393 878.537c0 8.975-6.785 16.257-15.152 16.257h-113.76c-8.372 0-15.156-7.281-15.156-16.257v-281.767c0-8.978 6.785-16.246 15.156-16.246h113.76c8.369 0 15.152 7.268 15.152 16.246v281.767z"  /><path fill="#333333" d="M576.018 880.066c0 11.722-6.795 14.726-15.152 14.726h-113.758c-8.374 0-15.156-3.004-15.156-14.726v-380.868c0-11.723 6.782-14.726 15.156-14.726h113.758c8.359 0 15.152 3.004 15.152 14.726v380.868z"  /><path fill="#333333" d="M625.191 758.306v-487.586c0-18.654 6.797-18.563 15.177-18.563h113.741c8.378 0 15.164-0.09 15.164 18.563 0 0 1.203 366.912 0 381.393-122.69 1.61-144.081 106.192-144.081 106.192z"  /><path fill="#333333" d="M703.967 118.304l-95.078-117.833-108.946 117.833h83.127c-18.683 86.724-111.398 375.74-522.019 418.188 0 0 477.593 52.006 560.357-418.188h82.559z"  /><path fill="#333333" d="M795.211 667.395c-98.342 0-178.067 79.724-178.067 178.065 0 98.342 79.724 178.067 178.067 178.067 98.341 0 178.065-79.724 178.065-178.067 0-98.341-79.724-178.065-178.065-178.065zM855.209 840.517v20.655h-42.149v18.617h42.149v20.652h-42.149v46.547h-38.391v-46.547h-41.882v-20.652h41.882v-18.617h-41.882v-20.655h32.217l-43.76-82.615h43.76l18.791 46.546c4.831 11.637 7.786 21.523 11.276 31.707h0.538c3.49-9.598 6.98-20.655 11.543-32l19.061-46.254h42.955l-45.907 82.618h31.949z"  /></svg>