<?xml version="1.0" standalone="no"?><!DOCTYPE svg PUBLIC "-//W3C//DTD SVG 1.1//EN" "http://www.w3.org/Graphics/SVG/1.1/DTD/svg11.dtd"><svg class="icon" width="200px" height="200.00px" viewBox="0 0 1024 1024" version="1.1" xmlns="http://www.w3.org/2000/svg"><path fill="#333333" d="M560.208 389.586c102.627 0 186.083-83.478 186.083-186.073s-83.456-186.061-186.083-186.061-186.049 83.478-186.049 186.061 83.468 186.073 186.049 186.073zM560.208 51.814c83.661 0 151.723 68.050 151.723 151.7s-68.062 151.711-151.723 151.711-151.689-68.062-151.689-151.711 68.062-151.7 151.689-151.7z"  /><path fill="#333333" d="M1005.136 475.307c-2.353-1.286-5.154-2.044-8.133-2.044-6.48 0-12.122 3.582-15.056 8.874-8.225 15.072-26.942 30.022-46.693 34.983 11.378-19.001 16.645-39.663 11.037-60.95-7.748-29.582-30.435-53.68-56.479-60.075-17.067-4.176-32.995 0-43.532 11.559s-19.57 34.521-3.925 79.645c8.090 23.335 19.342 38.514 31.107 48.321-12.709 10.672-26.954 19.741-41.028 27.694-19.046-59.449-57.059-110.706-112.845-149.516-2.734-1.919-6.131-3.067-9.796-3.067-9.489 0-17.181 7.693-17.181 17.181 0 5.823 2.898 10.971 7.329 14.078 81.588 56.732 120.921 143.271 110.919 242.951-5.761 37.68-19.426 71.345-39.276 100.457 11.979-19.598 11.22-16.797 11.22-13.82 0 0.651 0.036 1.294 0.107 1.926l18.789 171.727c0 10.991-26.885 26.749-45.636 26.749h-29.73c-14.791 0-26.749-12.003-26.919-29.252l-7.555-51.427c-1.269-8.357-8.404-14.688-17.018-14.688-2.895 0-5.621 0.715-8.016 1.978-49.844 25.895-171.711 30.549-223.344-0.41-2.528-1.548-5.587-2.463-8.861-2.463-8.795 0-16.045 6.612-17.050 15.137l-5.913 54.295c0 12.959-4.198 17.067-5.575 18.42-9.33 9.204-34.202 8.795-56.081 8.477l-13.79-0.148c-14.734 0-26.715-12.003-26.954-23.893l18.898-113.413c0.151-0.857 0.239-1.842 0.239-2.848 0-4.793-1.967-9.126-5.139-12.236-3.121-3.041-7.388-4.915-12.091-4.915-1.1 0-2.177 0.102-3.22 0.298-62.379 11.645-126.345-11.054-166.519-59.421-2.634-3.161-6.343-5.347-10.559-5.998l-61.85-16.962c-12.925-3.562-13.426-3.686-18.489-47.923-1.582-13.915-3.562-31.027-6.508-49.721 0-3.948 8.351-6.827 13.517-8.409l45.443-18.102c5.034-2.044 8.813-6.262 10.212-11.457 19.689-55.671 70.262-97.838 131.6-108.726 8.116-1.479 14.188-8.495 14.188-16.928 0-2.895-0.716-5.621-1.979-8.016l-55.364-106.243c0.398-2.548 1.514-2.685 3.618-2.935 34.93-4.676 129.468 64.205 140.276 108.157 1.905 7.556 8.64 13.060 16.661 13.060 4.567 0 8.717-1.785 11.791-4.693 31.786-30.202 71.455-52.421 115.597-63.254-53.187 19.305-49.667 13.706-49.667 7.285 0-9.494-7.697-17.191-17.191-17.191-2.797 0-5.437 0.668-7.771 1.853-41.198 22.012-75.458 52.161-101.615 88.53 23.046-112.15-65.313-173.193-112.292-167.924-21.345 2.582-34.133 17.852-34.133 40.858 0 0.005 0 0.013 0 0.020 0 2.903 0.72 5.638 1.991 8.037l47.309 90.781c-60.711 17.749-110.102 61.827-133.12 119.671l-36.852 14.791c-31.858 9.33-36.682 29.582-36.477 43.372 3.050 20.753 4.972 37.547 6.542 51.109 5.302 46.205 7.714 67.299 43.532 77.153l58.778 15.986c38.329 43.428 94.119 70.675 156.275 70.675 5.506 0 10.961-0.214 16.359-0.634l-16.086 93.456c0.027 33.728 27.351 61.065 61.071 61.11l13.26 0.137c4.699 0.080 9.398 0.148 14.063 0.148 25.373 0 50.062-2.185 66.685-18.478 10.467-10.342 15.804-24.781 15.713-41.028l3.152-28.57c59.767 21.902 154.134 19.217 212.025-0.455l4.096 27.136c0.046 33.731 27.378 61.065 61.105 61.11h29.734c32.222 0 80.009-25.657 79.906-62.976l-18.318-168.391c17.217-33.020 28.076-71.844 29.93-113.012-1.585 17.677-0.993 6.469-0.993-4.876 0-20.797-1.989-41.127-5.786-60.815 20.961-8.895 45.481-24.767 66.075-44.394 4.109 0.864 8.848 1.382 13.701 1.433 36.509 3.095 75.899-25.679 91.509-54.556 1.324-2.377 2.101-5.215 2.101-8.233 0-6.512-3.622-12.178-8.963-15.091zM897.877 511.158c-9.626-6.975-17.351-18.705-23.018-35.101-9.023-26.044-7.35-40.653-3.152-45.249 1.28-1.21 3.013-1.953 4.917-1.953 0.183 0 0.365 0.006 0.545 0.020 1.659 0.025 3.275 0.262 4.813 0.685 11.002 2.727 25.792 15.004 31.106 35.347 3.823 14.631-2.867 30.742-15.212 46.262z"  /><path fill="#333333" d="M203.037 604.411c-2.975 3.162-4.812 7.426-4.836 12.118-0.001-0.001-0.002 0.106-0.002 0.214 0 4.682 1.843 8.933 4.845 12.068 3.196 2.976 7.505 4.807 12.241 4.807 0.038 0 0.076 0 0.115 0 0.021 0 0.053 0 0.085 0 4.644 0 8.861-1.834 11.963-4.818 3.11-3.315 5.052-7.772 5.134-12.682-0.086-4.438-2.073-8.719-5.234-11.798-6.449-6.428-17.087-6.428-24.313 0.092zM541.957 288.074v5.211c0 9.488 7.693 17.181 17.181 17.181s17.181-7.693 17.181-17.181v-5.222c23.893-6.736 41.45-26.817 41.45-50.779 0-37.012-40.505-48.833-53.475-52.622-25.873-8.101-29.366-14.563-29.366-19.831 0-10.32 11.105-19.024 24.235-19.024 9.102 0 17.386 4.005 21.618 10.457 3.105 4.772 8.413 7.882 14.446 7.882 9.488 0 17.181-7.693 17.181-17.181 0-3.523-1.060-6.799-2.881-9.525-7.436-11.383-19.473-19.53-33.149-23.398v-5.211c0-9.488-7.693-17.181-17.181-17.181s-17.181 7.693-17.181 17.181c0 0 0 0 0 0v5.234c-23.893 6.736-41.415 26.817-41.415 50.779 0 35.897 37.456 47.628 53.794 52.724 29.059 8.487 29.059 16.953 29.059 19.729 0 10.32-11.105 19.024-24.269 19.024-9.933 0-25.941-6.895-35.669-15.348-2.999-2.622-6.95-4.22-11.276-4.22-9.485 0-17.173 7.69-17.173 17.173 0 5.159 2.275 9.789 5.877 12.937 11.33 9.916 26.599 17.493 41.014 21.214z"  /></svg>