<?xml version="1.0" standalone="no"?><!DOCTYPE svg PUBLIC "-//W3C//DTD SVG 1.1//EN" "http://www.w3.org/Graphics/SVG/1.1/DTD/svg11.dtd"><svg class="icon" width="200px" height="200.00px" viewBox="0 0 1024 1024" version="1.1" xmlns="http://www.w3.org/2000/svg"><path fill="currentColor" d="M500.778 467.74c-10.757 0-21.515-4.106-29.727-12.31L355.84 340.233c-16.423-16.423-16.423-43.043 0-59.46 16.396-16.423 43.03-16.416 59.454-0.006l115.209 115.196c16.424 16.423 16.424 43.043 0 59.458-8.198 8.212-18.968 12.319-29.726 12.319zM525.741 467.74c-10.757 0-21.514-4.106-29.725-12.31-16.424-16.416-16.424-43.037 0-59.46L611.2 280.76c16.395-16.424 43.029-16.415 59.453-0.007 16.423 16.416 16.423 43.036 0 59.46L555.469 455.42c-8.198 8.212-18.97 12.319-29.728 12.319zM663.452 522.253H363.068c-23.225 0-42.044-18.826-42.044-42.045 0-23.218 18.819-42.044 42.044-42.044H663.45c23.226 0 42.044 18.826 42.044 42.044 0.001 23.219-18.817 42.045-42.043 42.045zM663.452 662.398H363.068c-23.225 0-42.044-18.825-42.044-42.043 0-23.219 18.819-42.044 42.044-42.044H663.45c23.226 0 42.044 18.825 42.044 42.044 0.001 23.217-18.817 42.043-42.043 42.043zM513.26 779.141c-23.226 0-42.044-18.824-42.044-42.044V484.162c0-23.218 18.818-42.044 42.043-42.044s42.045 18.826 42.045 42.044v252.934c0 23.22-18.819 42.045-42.045 42.045zM513.136 958.498c-60.958 0.007-121.807-12.585-179.343-37.713-226.63-98.977-330.487-363.86-231.515-590.475C150.2 220.534 238.018 135.987 349.546 92.26c111.515-43.741 233.39-41.408 343.153 6.528 21.283 9.294 31 34.07 21.706 55.354-9.278 21.268-34.037 31.025-55.346 21.699-89.193-38.957-188.226-40.819-278.814-5.303-90.617 35.536-161.963 104.227-200.907 193.42-80.413 184.127 3.968 399.349 188.11 479.768 89.15 38.937 188.212 40.82 278.814 5.304 90.603-35.53 161.949-104.22 200.899-193.42 56.674-129.738 32.546-282.017-61.493-387.956-15.41-17.368-13.821-43.946 3.546-59.357 17.381-15.403 43.933-13.823 59.357 3.531 115.703 130.375 145.403 317.773 75.644 477.436-47.929 109.771-135.74 194.317-247.254 238.044-53.063 20.81-108.492 31.19-163.825 31.19z" /></svg>