<?xml version="1.0" standalone="no"?><!DOCTYPE svg PUBLIC "-//W3C//DTD SVG 1.1//EN" "http://www.w3.org/Graphics/SVG/1.1/DTD/svg11.dtd"><svg class="icon" width="200px" height="179.02px" viewBox="0 0 1144 1024" version="1.1" xmlns="http://www.w3.org/2000/svg"><path fill="#8a8a8a" d="M126.042353 999.936h-1.264941c-7.408941-0.271059-45.899294-2.710588-71.529412-26.774588-26.262588-24.636235-29.424941-60.084706-29.786353-66.921412a34.635294 34.635294 0 0 1-0.030118-1.957647v-192.993882a201.276235 201.276235 0 0 1 8.101647-64.662589c8.613647-28.611765 19.275294-47.375059 22.317177-52.434823l96.918588-171.429647c0.481882-0.873412 0.993882-1.686588 1.505883-2.499765 3.041882-4.517647 19.275294-27.557647 41.562352-41.411765 23.431529-14.607059 51.802353-15.721412 59.934118-15.721411H865.882353c0.783059 0 1.566118 0 2.379294 0.060235 6.083765 0.391529 37.647059 3.072 62.102588 17.046588 23.371294 13.372235 42.164706 36.743529 45.688471 41.261177 0.722824 0.963765 1.385412 1.927529 2.017882 2.891294l115.07953 182.39247c0.481882 0.783059 0.993882 1.626353 1.445647 2.499765 2.198588 4.216471 13.552941 26.593882 19.335529 48.368941a265.938824 265.938824 0 0 1 7.258353 49.874824l0.060235 1.566117v193.054118c0.120471 10.179765-1.776941 45.206588-30.810353 71.228235-27.527529 24.636235-64.572235 26.563765-75.294117 26.563765H126.102588z m-9.848471-366.622118c-2.108235 3.764706-8.734118 16.203294-14.245647 34.575059a128.120471 128.120471 0 0 0-4.969411 42.164706v192.963765l0.060235 0.542117c0.481882 3.463529 2.590118 11.866353 6.234353 15.661177l0.481882 0.512 0.602353 0.451765c5.12 3.764706 17.769412 5.903059 22.196706 6.174117h888.681412c7.348706-0.060235 20.239059-2.529882 26.081882-7.770353 5.240471-4.668235 6.415059-12.709647 6.415059-14.004706l-0.090353-2.228705v-192.150589a189.018353 189.018353 0 0 0-4.848941-33.731764c-3.403294-12.950588-11.023059-28.431059-12.528941-31.412706l-0.39153-0.722824-112.941176-178.989176-0.361412-0.421647c-4.276706-5.150118-14.546824-16.173176-22.738824-20.87153-7.107765-4.065882-21.564235-6.656-29.003294-7.348706l-0.783059-0.030117H253.891765c-5.722353 0.030118-16.293647 1.566118-21.202824 4.608-6.927059 4.306824-15.058824 14.155294-18.432 18.733176l-0.301176 0.39153-96.286118 170.345411-1.054118 1.776942V632.470588c0 0.090353-0.421647 0.843294-0.421647 0.843294z m452.608-324.126117c-20.299294 0-36.743529-16.474353-36.743529-36.773647V60.837647c0-20.299294 16.444235-36.743529 36.743529-36.773647 20.299294 0 36.743529 16.474353 36.803765 36.743529v211.606589c-0.030118 20.299294-16.474353 36.743529-36.803765 36.743529z m246.603294-1.385412a36.833882 36.833882 0 0 1-28.551529-59.964235l84.058353-103.695059a36.653176 36.653176 0 0 1 51.712-5.421177c7.619765 6.144 12.468706 15.058824 13.432471 24.756706 1.054118 9.728-1.807059 19.425882-8.011295 26.985412l-84.028235 103.695059c-6.987294 8.643765-17.468235 13.643294-28.551529 13.613176h-0.060236z m-489.050352-2.831059a36.532706 36.532706 0 0 1-28.732236-13.854118L214.979765 187.452235a36.833882 36.833882 0 0 1 28.732235-59.723294c11.294118 0 21.775059 5.059765 28.792471 13.854118l82.642823 103.695059a36.803765 36.803765 0 0 1-28.732235 59.693176h-0.060235z"  /><path fill="#8a8a8a" d="M570.217412 848.624941c-81.92 0-153.118118-54.934588-173.116236-133.571765l-1.596235-6.324705-326.625882-0.210824a36.833882 36.833882 0 0 1 0-73.577412l359.664941 0.240941c20.299294 0.060235 36.743529 16.504471 36.743529 36.803765 0 57.825882 46.08 103.092706 104.929883 103.092706 58.639059 0 104.568471-45.296941 104.56847-103.092706a36.864 36.864 0 0 1 36.74353-36.803765l356.352-0.210823a36.803765 36.803765 0 0 1 0.030117 73.547294l-323.312941 0.210824-1.596235 6.324705c-19.968 78.637176-91.015529 133.571765-172.784941 133.571765z"  /></svg>