<?xml version="1.0" standalone="no"?><!DOCTYPE svg PUBLIC "-//W3C//DTD SVG 1.1//EN" "http://www.w3.org/Graphics/SVG/1.1/DTD/svg11.dtd"><svg class="icon" width="200px" height="200.00px" viewBox="0 0 1024 1024" version="1.1" xmlns="http://www.w3.org/2000/svg"><path fill="#333333" d="M426.038 538.947c32.471 0 59.015 26.544 59.015 59.015v205.34c0 32.47-26.544 59.014-59.015 59.014h-205.34a59.176 59.176 0 0 1-59.014-59.015V597.962c0-32.471 26.543-59.015 59.015-59.015h205.339z m377.263 0c32.472 0 59.015 26.544 59.015 59.015v205.34c0 32.47-26.543 59.014-59.015 59.014H597.962a59.176 59.176 0 0 1-59.015-59.015V597.962c0-32.471 26.544-59.015 59.015-59.015h205.34zM426.038 161.684c32.471 0 59.015 26.543 59.015 59.015v205.339c0 32.471-26.544 59.015-59.015 59.015h-205.34a59.176 59.176 0 0 1-59.014-59.015v-205.34c0-32.47 26.543-59.014 59.015-59.014h205.339zM803.3 485.053H597.962a59.176 59.176 0 0 1-59.015-59.015v-205.34c0-32.47 26.544-59.014 59.015-59.014h205.34c32.47 0 59.014 26.543 59.014 59.015v205.339c0 32.471-26.543 59.015-59.015 59.015z m5.12-235.44c0-18.728-15.306-34.034-34.034-34.034h-147.51c-18.729 0-34.035 15.306-34.035 34.034v147.51c0 18.729 15.306 34.035 34.035 34.035h147.51c18.728 0 34.034-15.306 34.034-34.035v-147.51z" /></svg>