<?xml version="1.0" standalone="no"?><!DOCTYPE svg PUBLIC "-//W3C//DTD SVG 1.1//EN" "http://www.w3.org/Graphics/SVG/1.1/DTD/svg11.dtd"><svg class="icon" width="200px" height="200.00px" viewBox="0 0 1024 1024" version="1.1" xmlns="http://www.w3.org/2000/svg"><path fill="#888888" d="M528.427008 442.84416c-1.547264 0-3.099648-0.140288-4.647936-0.41984l-291.411968-52.420608c-12.399616-2.255872-21.559296-13.103104-21.559296-25.787392l0-78.631936c0-43.259904 35.227648-78.62784 78.631936-78.62784l471.49568 0c43.259904 0 78.631936 35.227648 78.631936 78.62784l0 78.631936c0 12.684288-9.019392 23.53152-21.420032 25.787392l-284.928 52.420608C531.52768 442.703872 529.979392 442.84416 528.427008 442.84416L528.427008 442.84416zM263.087104 342.376448l265.20064 47.627264 258.719744-47.627264 0-56.792064c0-14.37184-11.696128-26.208256-26.212352-26.208256L289.29536 259.376128c-14.37184 0-26.208256 11.696128-26.208256 26.208256L263.087104 342.376448 263.087104 342.376448zM263.087104 342.376448M760.935424 940.556288 289.29536 940.556288c-43.259904 0-78.62784-35.231744-78.62784-78.631936l0-392.86784c0-14.516224 11.696128-26.212352 26.208256-26.212352 14.516224 0 26.211328 11.696128 26.211328 26.212352L263.087104 862.06464c0 14.5152 11.696128 26.211328 26.208256 26.211328l471.640064 0c14.516224 0 26.212352-11.696128 26.212352-26.211328L787.147776 469.056512c0-14.516224 11.696128-26.212352 26.207232-26.212352 14.516224 0 26.212352 11.696128 26.212352 26.212352L839.56736 862.06464C839.427072 905.324544 804.195328 940.556288 760.935424 940.556288L760.935424 940.556288zM760.935424 940.556288M603.53536 678.596608c14.516224 0 26.212352-11.696128 26.212352-26.212352 0-14.512128-11.696128-26.208256-26.212352-26.208256l-42.416128 0 62.283776-60.032c10.428416-10.003456 10.712064-26.632192 0.704512-36.916224-10.00448-10.427392-26.632192-10.571776-37.059584-0.5632l-62.424064 60.307456-60.027904-59.887616c-10.288128-10.284032-26.916864-10.284032-37.060608 0-10.288128 10.288128-10.14784 26.635264 0 36.919296l60.592128 60.312576-41.851904 0c-14.512128 0-26.208256 11.696128-26.208256 26.208256 0 14.5152 11.696128 26.211328 26.208256 26.211328l52.559872 0 0 26.208256-52.559872 0c-14.512128 0-26.208256 11.696128-26.208256 26.212352 0 14.5152 11.696128 26.207232 26.208256 26.207232l52.559872 0 0 52.704256c0 14.512128 11.696128 26.208256 26.212352 26.208256 14.512128 0 26.207232-11.696128 26.207232-26.208256l0-52.704256 52.28032 0c14.516224 0 26.212352-11.692032 26.212352-26.207232 0-14.516224-11.696128-26.212352-26.212352-26.212352l-52.28032 0 0-26.34752L603.53536 678.596608 603.53536 678.596608zM603.53536 678.596608" /></svg>