<?xml version="1.0" standalone="no"?><!DOCTYPE svg PUBLIC "-//W3C//DTD SVG 1.1//EN" "http://www.w3.org/Graphics/SVG/1.1/DTD/svg11.dtd"><svg class="icon" width="200px" height="200.00px" viewBox="0 0 1024 1024" version="1.1" xmlns="http://www.w3.org/2000/svg"><path fill="#333333" d="M403.037 205.723c5.553 8.463 14.985 13.516 25.122 13.516h165.478c9.432 0 18.306-4.349 24.006-11.87l70.134-92.847c5.523-7.227 7.404-16.57 5.17-25.386a29.823 29.823 0 0 0-16.512-20.038c-54.473-25.21-110.857-38.02-167.535-38.02-93.758 0-155.872 35.258-158.486 36.786-7.169 4.113-12.311 11.047-14.22 19.098s-0.41 16.513 4.143 23.447l62.7 95.314z m213.078-96.136l-37.433 49.479H444.376l-34.024-51.654c42.046-14.397 129.37-24.152 205.763 2.175zM637.857 275.887l-6.17-3.054H517.655c-0.41-0.06-0.763-0.235-1.174-0.235H392.81l-6.169 3.055c-15.72 7.933-384.138 197.327-309.92 490.5 1.117 9.343 31.557 224.182 420.044 226.298 0.264 0 0.47 0.176 0.734 0.176 8.404 0.178 16.601 0.294 24.71 0.294 393.922 0 424.48-217.073 424.89-222.83 74.925-296.874-293.524-486.27-309.243-494.204z m252.185 483.331c-1.058 7.228-30.087 173.765-365.158 175-361.603 7.227-389.368-167.77-391.073-178.584C74.99 522.46 361.931 355.336 406.975 330.772h99.87c0.41 0 0.762 0.235 1.174 0.235h109.535c45.014 24.505 332.074 191.394 272.488 428.211zM618.494 441.484L512.19 547.787 405.887 441.484c-11.753-11.753-30.793-11.753-42.545 0-11.752 11.752-11.752 30.792 0 42.544l95.872 95.903h-51.036c-16.63 0-30.086 13.398-30.086 30.086 0 16.572 13.456 30.087 30.086 30.087h74.983v47.833H407.59c-17.952 0-32.497 14.574-32.497 32.555 0 17.924 14.545 32.437 32.497 32.437h75.57v65.228c0 16.689 13.457 30.086 30.088 30.086 16.63 0 30.086-13.398 30.086-30.086v-65.228H618.2c17.953 0 32.496-14.514 32.496-32.437 0-17.981-14.543-32.555-32.496-32.555h-74.865v-47.833h75.453c16.63 0 30.087-13.515 30.087-30.087 0-16.689-13.457-30.086-30.087-30.086h-53.622l95.873-95.903c11.752-11.752 11.752-30.792 0-42.544-11.752-11.753-30.79-11.753-42.544 0z" /></svg>