<?xml version="1.0" standalone="no"?><!DOCTYPE svg PUBLIC "-//W3C//DTD SVG 1.1//EN" "http://www.w3.org/Graphics/SVG/1.1/DTD/svg11.dtd"><svg class="icon" width="200px" height="173.56px" viewBox="0 0 1180 1024" version="1.1" xmlns="http://www.w3.org/2000/svg"><path fill="#888888" d="M317.49172974 738.88058472h650.28323364a31.12152099 31.12152099 0 0 0 29.03686524-28.96847535s44.59844971-248.13665771 64.9522705-418.9573059c5.83538818-47.30685425-16.4630127-70.43994141-60.08917237-70.43994141h-710.37322997L279.63256836 119.09265137A30.21844482 30.21844482 0 0 0 252.47024536 90.125H121.66345215a32.8576355 32.8576355 0 0 0-1e-8 65.64605713h101.76910401l65.92456055 554.27947998a29.5930481 29.5930481 0 0 0 27.78689575 28.83004761z m681.26550292-453.6911316c-17.57537842 137.05911255-46.54302979 320.52200318-58.14376831 389.01654053H345.55630493l-46.54302978-389.01654053h699.74395751zM349.44628906 804.52664185a64.67376709 64.67376709 0 1 0 64.95227052 64.67376708 64.67376709 64.67376709 0 0 0-64.95227052-64.67376708z m586.30407716 0a64.67376709 64.67376709 0 1 0 64.9522705 64.67376708 64.67376709 64.67376709 0 0 0-64.9522705-64.67376708z" /></svg>