<?xml version="1.0" standalone="no"?><!DOCTYPE svg PUBLIC "-//W3C//DTD SVG 1.1//EN" "http://www.w3.org/Graphics/SVG/1.1/DTD/svg11.dtd"><svg class="icon" width="200px" height="200.00px" viewBox="0 0 1024 1024" version="1.1" xmlns="http://www.w3.org/2000/svg"><path fill="currentColor" d="M222.608696 585.46087v209.252173c0 11.130435 8.904348 22.26087 22.260869 22.26087 11.130435 0 22.26087-8.904348 22.26087-22.26087v-209.252173c0-11.130435-8.904348-22.26087-22.26087-22.26087-13.356522 2.226087-22.26087 11.130435-22.260869 22.26087zM400.695652 407.373913v387.33913c0 11.130435 8.904348 22.26087 22.26087 22.26087s22.26087-8.904348 22.260869-22.26087V407.373913c0-11.130435-8.904348-22.26087-22.260869-22.26087s-22.26087 11.130435-22.26087 22.26087zM581.008696 585.46087v209.252173c0 11.130435 8.904348 22.26087 22.260869 22.26087s22.26087-8.904348 22.26087-22.26087v-209.252173c0-11.130435-8.904348-22.26087-22.26087-22.26087s-22.26087 11.130435-22.260869 22.26087zM759.095652 407.373913v387.33913c0 11.130435 8.904348 22.26087 22.26087 22.26087 11.130435 0 22.26087-8.904348 22.260869-22.26087V407.373913c0-11.130435-8.904348-22.26087-22.260869-22.26087-13.356522 2.226087-22.26087 11.130435-22.26087 22.26087zM957.217391 863.721739H86.817391V140.243478c0-11.130435-8.904348-22.26087-22.260869-22.260869s-22.26087 8.904348-22.26087 22.260869v743.513044c0 11.130435 8.904348 22.26087 22.26087 22.260869H957.217391c11.130435 0 22.26087-8.904348 22.26087-22.260869 0-11.130435-8.904348-20.034783-22.26087-20.034783zM213.704348 365.078261l164.730435-138.017391 193.669565 166.956521c4.452174 4.452174 8.904348 4.452174 13.356522 4.452174 4.452174 0 8.904348-2.226087 13.356521-4.452174L801.391304 220.382609v37.843478c0 11.130435 8.904348 22.26087 22.26087 22.26087s22.26087-8.904348 22.260869-22.26087v-89.043478c0-11.130435-8.904348-22.26087-22.260869-22.26087h-89.043478c-11.130435 0-22.26087 8.904348-22.26087 22.26087s8.904348 22.26087 22.26087 22.260869h37.843478l-184.765217 158.052174-193.669566-166.956522c-8.904348-6.678261-20.034783-6.678261-26.713043 0l-178.086957 149.147827c-8.904348 6.678261-11.130435 20.034783-2.226087 28.93913 4.452174 11.130435 17.808696 11.130435 26.713044 4.452174z" /></svg>