<?xml version="1.0" standalone="no"?><!DOCTYPE svg PUBLIC "-//W3C//DTD SVG 1.1//EN" "http://www.w3.org/Graphics/SVG/1.1/DTD/svg11.dtd"><svg class="icon" width="200px" height="200.00px" viewBox="0 0 1024 1024" version="1.1" xmlns="http://www.w3.org/2000/svg"><path fill="#f4ea2a" d="M363.4 821c-14.4 0-28.2-5.3-38.9-15L83 583.7c-23.6-21.2-25.5-58-4.1-81.8 11-12.2 26.7-19.2 43.1-19.2 14.4 0 28.1 5.3 38.9 14.9L360.8 682l428.9-430.3c11.1-11.4 25.9-17.7 41.8-17.7 15.1 0 29.4 5.8 40.3 16.2 11.2 10.8 17.5 25.2 17.8 40.8 0.3 15.5-5.5 30.2-16.2 41.3l-468.2 471c-11.1 11.4-25.9 17.7-41.8 17.7z"  /></svg>