<?xml version="1.0" standalone="no"?><!DOCTYPE svg PUBLIC "-//W3C//DTD SVG 1.1//EN" "http://www.w3.org/Graphics/SVG/1.1/DTD/svg11.dtd"><svg class="icon" width="200px" height="200.00px" viewBox="0 0 1024 1024" version="1.1" xmlns="http://www.w3.org/2000/svg"><path fill="#888888" d="M634.792229 739.913143a43.885714 43.885714 0 0 1 4.242285 87.566628l-4.242285 0.2048h-256.585143a43.885714 43.885714 0 0 1-4.242286-87.595885l4.213029-0.175543h256.6144z m291.693714-365.714286c36.132571 0 65.711543 28.0576 68.110628 63.575772l0.146286 4.681142v316.942629c0 36.132571-28.086857 65.711543-63.605028 68.110629l-4.681143 0.175542h-101.463772a43.885714 43.885714 0 0 1-4.242285-87.595885l4.242285-0.175543L906.971429 739.883886v-277.942857H117.028571v277.942857h43.388343a43.885714 43.885714 0 0 1 43.680915 39.672685l0.2048 4.242286a43.885714 43.885714 0 0 1-39.672686 43.680914l-4.213029 0.2048h-62.902857a68.256914 68.256914 0 0 1-68.110628-63.605028L29.257143 759.3984V442.455771c0-36.132571 28.086857-65.711543 63.605028-68.110628l4.681143-0.146286h828.942629zM519.314286 137.684114v243.829029h-87.771429V137.684114zM706.998857 105.998629H221.769143a73.142857 73.142857 0 0 0-72.850286 66.530742l-19.0464 209.656686a73.142857 73.142857 0 0 0 72.850286 79.784229h542.427428a73.142857 73.142857 0 0 0 71.972572-86.250057l-38.151314-209.656686a73.142857 73.142857 0 0 0-71.972572-60.064914z m-12.200228 87.771428l32.797257 180.399543H218.7264l16.384-180.399543h459.688229zM256 666.770286a129.2288 129.2288 0 1 1 0 258.428343 129.2288 129.2288 0 0 1 0-258.428343z m487.6288 0a129.2288 129.2288 0 1 1 0 258.428343 129.2288 129.2288 0 0 1 0-258.428343z m-487.6288 87.771428a41.457371 41.457371 0 1 0 0 82.885486 41.457371 41.457371 0 0 0 0-82.885486z m487.6288 0a41.457371 41.457371 0 1 0 0 82.885486 41.457371 41.457371 0 0 0 0-82.885486z" /></svg>