<?xml version="1.0" standalone="no"?><!DOCTYPE svg PUBLIC "-//W3C//DTD SVG 1.1//EN" "http://www.w3.org/Graphics/SVG/1.1/DTD/svg11.dtd"><svg class="icon" width="200px" height="200.00px" viewBox="0 0 1024 1024" version="1.1" xmlns="http://www.w3.org/2000/svg"><path fill="#333333" d="M728.291626 227.627301c-20.176528-7.361665-51.366901-12.215206-74.106812-11.342326-24.210401 0.299829-45.095058 4.007267-62.436004 8.28878-5.998621 1.690502-12.106736 3.081175-17.940604 4.907777 4.199649-2.317789 8.397251-4.252861 12.651135-5.998621 30.53648-13.005198 63.199391-14.694677 88.337931-12.215206-27.974122-18.84009-78.304414-19.684318-111.022583 0.982374l-0.217964-0.463558c7.360641-4.444219 15.267728-8.888438 23.609721-12.978593 36.972053-18.212804 81.468476-26.992771 112.332415-14.586207-12.3247-9.761318-28.519544-17.995863-45.914726-22.603811 33.590026-6.597255 68.216661-1.880837 97.117898 6.02625-15.268752-15.458063-38.553061-23.556509-63.309908-25.573445 33.42732-8.235568 69.799716-6.353708 100.007715 4.880147-12.378935-13.496385-31.137161-27.373441-51.529607-35.963073 41.934065-1.007957 84.630493 15.322987 116.312052 35.963073-13.579273-18.104333-35.281551-38.798655-59.656705-51.966559 47.222511 0.573051 99.462293 20.829398 130.545218 50.331315-40.84322-63.826678-112.222921-89.51064-188.728362-76.91374-75.251891 11.668761-157.482731 64.590064-198.161199 144.559397-1.526773 2.998287-3.163039 6.325056-4.689812 9.596566-10.143011-14.886035-21.375843-28.000728-30.755468-37.543058-60.963467-62.954821-127.653355-78.604242-174.277232-60.527538-38.389332 13.659091-68.543096 61.508889-60.092633 117.64849-2.888793-29.774117 15.268752-63.337537 35.880185-77.268828-8.888438 17.530258-14.394848 39.697117-16.467043 57.337893 8.723685-25.303292 26.064632-50.386574 47.65844-62.191434-9.106402 13.441127-16.140609 30.154787-19.848047 44.550659 12.977569-17.558911 32.389688-29.745465 53.657061-32.881898-14.394848 9.351995-25.956162 23.284309-31.408337 40.597627 14.504342-14.722306 34.244942-28.818349 57.092299-33.889855-10.41521 10.087753-18.812461 22.576181-24.483624 35.090193 17.012466-20.448728 49.676399-26.556842 83.102696-22.358217 8.015557 0.927115 16.032138 2.290159 23.883967 4.116761l0 0.626263c-29.118178-7.007601-60.909232 5.862521-78.413907 26.801413-103.497189 3.653203-204.977441 47.169299-241.621013 148.702764 24.156166-34.544771 65.926502-67.480904 105.788371-85.993536-15.868409 20.612457-28.464285 46.24116-34.845623 66.853617 22.903639-28.983101 54.203506-58.647725 88.720647-76.205613-13.032828 16.194844-23.503297 35.716456-28.737508 52.321646 21.593807-21.266349 49.731658-38.116109 78.631872-48.722678-10.251481 7.525394-20.066011 15.84078-29.227672 24.921599-49.840128 50.275034-87.793532 119.228475-103.388718 214.110449 23.338544-54.174853 56.547901-111.295805 86.919628-149.957337-6.978948 29.41903-10.141988 62.518892-9.596566 87.847767 13.413498-42.205241 30.099529-87.684038 52.67571-120.483048-4.798283 21.975501-6.870478 46.105061-5.562692 65.190745 11.233855-31.927153 28.028357-61.346183 47.38624-83.10372-9.105379 20.665669-15.21247 43.841507-13.249769 65.462944 6.925736-20.366863 15.486716-41.551348 25.51921-60.282968 0 0.109494 0 0.109494 0 0.109494-0.217964 0.572028-0.436952 1.172709-0.654916 1.689479 0.327458-0.245593 0.654916-0.517793 0.981351-0.735757 1.690502 5.043876 4.363378 9.760295 7.743358 13.850449-0.10847 4.552689-0.10847 8.751315 0.163729 12.896728 0.708128-3.326768 1.52575-6.653537 2.452865-9.952676 6.653537 6.788613 15.377222 11.478426 25.193799 13.031804-49.022507 108.651582-87.357604 238.132562-89.320305 363.223558-121.383558 18.458397-206.449979 96.083335-206.449979 122.009821 0 24.974811 100.443643 61.237713 257.979586 61.237713 157.482731 0 257.980609-36.262902 257.980609-61.237713 0-28.981055-106.442264-122.58185-250.837932-125.771495 3.053546-92.647073 28.247344-200.424752 70.181409-303.077713 6.269797 3.299139 13.413498 5.234211 20.883633 5.234211 25.029046 0 45.314045-20.230764 45.314045-45.205575 0-1.744737-0.162706-3.598968-0.326435-5.589298 5.453199 2.426259 11.450796 3.681856 17.775852 3.681856 24.866341 0 45.206598-20.176528 45.206598-45.178969 0-2.317789-0.327458-4.797259-0.600681-7.388271 7.089465 15.023158 10.960633 30.426987 12.596899 43.706431 10.30674-26.992771 0.490164-69.772087-26.065655-92.210122 0.436952 0.245593 1.036609 0.572028 1.526773 0.789992 5.507434 4.716418 10.68741 9.952676 15.814174 15.486716 24.811082 26.910906 40.733727 63.063291 36.043914 91.227748 5.89015-12.268418 9.707083-27.346835 10.197246-42.969651 12.160971 27.183106 14.45113 57.148581 12.160971 82.83152 10.796904-15.378246 13.740956-36.45426 10.796904-57.801451 13.305027 26.829042 17.503653 58.183144 11.997242 85.12168 9.923-12.297071 18.97619-30.237675 23.011086-49.104371 7.743358 35.853579-0.763386 74.624605-16.032138 102.489232 14.287401-13.005198 29.937846-33.591049 37.898145-56.110949 6.053879 40.542368-8.016581 88.092337-35.716456 109.303428 57.910944-29.091572 73.779354-98.971106 49.949622-163.016771-9.43386-26.311249-25.574469-52.484352-46.732347-75.114768-1.636267-9.514701-4.415566-19.139919-8.28878-28.573779 26.555819 23.803125 43.842531 54.747905 54.366212 83.975577 3.871167-22.057365-3.325745-46.459125-17.176195-68.134797 28.028357 22.465664 47.605228 54.721299 56.384172 86.37523 3.980661-18.404162 4.252861-42.23287-0.545422-64.863287 26.01142 35.062564 37.407981 80.239486 39.698141 119.555933 6.707772-22.1116 11.014868-53.221132 7.525394-81.195254 27.373441 39.996946 42.478464 95.317902 41.116443 140.632971 22.138206-75.224262 2.998287-148.485823-53.494355-205.250664C809.159422 264.897136 771.588735 240.959957 728.291626 227.627301L728.291626 227.627301zM503.683079 232.725412c-29.118178-6.680143-60.037375-10.252505-91.174536-10.334369 27.265994-8.942673 65.164139-10.933003 101.044324 12.56927C510.009158 234.142691 506.846118 233.379305 503.683079 232.725412L503.683079 232.725412zM613.234147 248.075005c-1.744737-0.735757-3.598968-1.38965-5.508457-1.989307l0.163729-0.545422c4.199649 1.500167 8.616238 3.081175 13.087063 4.607948C618.414123 249.439072 615.850741 248.783133 613.234147 248.075005L613.234147 248.075005zM613.234147 248.075005M682.322665 830.045613c1.308809 3.353374 1.908466 6.544043 1.908466 9.405207 0 40.271192-120.728642 72.880891-269.651416 72.880891-148.97394 0-269.703605-32.609699-269.703605-72.880891 0-2.862187 0.599657-6.051833 1.854231-9.405207-29.119201 12.67774-45.805232 27.836999-45.805232 44.060495 0 46.595224 140.413983 84.603887 313.600371 84.603887 173.241646 0 313.710888-38.008662 313.710888-84.603887C728.291626 857.882612 711.440843 842.723354 682.322665 830.045613L682.322665 830.045613zM682.322665 830.045613" /></svg>